{
	"patcher" : 	{
		"fileversion" : 1,
		"rect" : [ 633.0, 1428.0, 868.0, 341.0 ],
		"bglocked" : 0,
		"defrect" : [ 633.0, 1428.0, 868.0, 341.0 ],
		"openrect" : [ 0.0, 0.0, 0.0, 0.0 ],
		"openinpresentation" : 0,
		"default_fontsize" : 12.0,
		"default_fontface" : 0,
		"default_fontname" : "Arial",
		"gridonopen" : 0,
		"gridsize" : [ 15.0, 15.0 ],
		"gridsnaponopen" : 0,
		"toolbarvisible" : 1,
		"boxanimatetime" : 200,
		"imprint" : 0,
		"enablehscroll" : 1,
		"enablevscroll" : 1,
		"devicewidth" : 0.0,
		"boxes" : [ 			{
				"box" : 				{
					"maxclass" : "button",
					"numoutlets" : 1,
					"patching_rect" : [ 50.0, 40.0, 20.0, 20.0 ],
					"outlettype" : [ "bang" ],
					"id" : "obj-15",
					"numinlets" : 1
				}

			}
, 			{
				"box" : 				{
					"maxclass" : "button",
					"numoutlets" : 1,
					"patching_rect" : [ 556.0, 153.0, 20.0, 20.0 ],
					"outlettype" : [ "bang" ],
					"id" : "obj-14",
					"numinlets" : 1
				}

			}
, 			{
				"box" : 				{
					"maxclass" : "newobj",
					"text" : "route /blode/chord/off",
					"numoutlets" : 2,
					"patching_rect" : [ 556.0, 119.0, 124.0, 20.0 ],
					"outlettype" : [ "", "" ],
					"id" : "obj-13",
					"fontname" : "Arial",
					"numinlets" : 1,
					"fontsize" : 12.0
				}

			}
, 			{
				"box" : 				{
					"maxclass" : "message",
					"text" : "2",
					"numoutlets" : 1,
					"patching_rect" : [ 497.0, 210.0, 32.5, 18.0 ],
					"outlettype" : [ "" ],
					"id" : "obj-12",
					"fontname" : "Arial",
					"numinlets" : 2,
					"fontsize" : 12.0
				}

			}
, 			{
				"box" : 				{
					"maxclass" : "message",
					"text" : "127",
					"numoutlets" : 1,
					"patching_rect" : [ 454.0, 211.0, 32.5, 18.0 ],
					"outlettype" : [ "" ],
					"id" : "obj-11",
					"fontname" : "Arial",
					"numinlets" : 2,
					"fontsize" : 12.0
				}

			}
, 			{
				"box" : 				{
					"maxclass" : "newobj",
					"text" : "flush",
					"numoutlets" : 2,
					"patching_rect" : [ 410.0, 210.0, 36.0, 20.0 ],
					"outlettype" : [ "int", "int" ],
					"id" : "obj-3",
					"fontname" : "Arial",
					"numinlets" : 2,
					"fontsize" : 12.0
				}

			}
, 			{
				"box" : 				{
					"maxclass" : "newobj",
					"text" : "noteout 2",
					"numoutlets" : 0,
					"patching_rect" : [ 403.0, 261.0, 61.0, 20.0 ],
					"id" : "obj-10",
					"fontname" : "Arial",
					"numinlets" : 3,
					"fontsize" : 12.0
				}

			}
, 			{
				"box" : 				{
					"maxclass" : "newobj",
					"text" : "noteout 2",
					"numoutlets" : 0,
					"patching_rect" : [ 215.0, 262.0, 61.0, 20.0 ],
					"id" : "obj-8",
					"fontname" : "Arial",
					"numinlets" : 3,
					"fontsize" : 12.0
				}

			}
, 			{
				"box" : 				{
					"maxclass" : "newobj",
					"text" : "unpack 0 0 0 0",
					"numoutlets" : 4,
					"patching_rect" : [ 397.0, 148.0, 89.0, 20.0 ],
					"outlettype" : [ "int", "int", "int", "int" ],
					"id" : "obj-7",
					"fontname" : "Arial",
					"numinlets" : 1,
					"fontsize" : 12.0
				}

			}
, 			{
				"box" : 				{
					"maxclass" : "newobj",
					"text" : "route /blode/chord/on",
					"numoutlets" : 2,
					"patching_rect" : [ 394.0, 120.0, 124.0, 20.0 ],
					"outlettype" : [ "", "" ],
					"id" : "obj-6",
					"fontname" : "Arial",
					"numinlets" : 1,
					"fontsize" : 12.0
				}

			}
, 			{
				"box" : 				{
					"maxclass" : "message",
					"text" : "1",
					"numoutlets" : 1,
					"patching_rect" : [ 279.0, 228.0, 32.5, 18.0 ],
					"outlettype" : [ "" ],
					"id" : "obj-4",
					"fontname" : "Arial",
					"numinlets" : 2,
					"fontsize" : 12.0
				}

			}
, 			{
				"box" : 				{
					"maxclass" : "newobj",
					"text" : "makenote 127 2000",
					"numoutlets" : 2,
					"patching_rect" : [ 215.0, 155.0, 117.0, 20.0 ],
					"outlettype" : [ "float", "float" ],
					"id" : "obj-2",
					"fontname" : "Arial",
					"numinlets" : 3,
					"fontsize" : 12.0
				}

			}
, 			{
				"box" : 				{
					"maxclass" : "newobj",
					"text" : "route /blode/melody",
					"numoutlets" : 2,
					"patching_rect" : [ 214.0, 120.0, 116.0, 20.0 ],
					"outlettype" : [ "", "" ],
					"id" : "obj-5",
					"fontname" : "Arial",
					"numinlets" : 1,
					"fontsize" : 12.0
				}

			}
, 			{
				"box" : 				{
					"maxclass" : "umenu",
					"numoutlets" : 3,
					"items" : [ "AU DLS Synth 1", ",", "IAC Driver Bus 1", ",", "from MaxMSP 1", ",", "from MaxMSP 2" ],
					"types" : [  ],
					"pattrmode" : 1,
					"patching_rect" : [ 48.0, 97.0, 155.0, 17.0 ],
					"outlettype" : [ "int", "", "" ],
					"id" : "obj-52",
					"fontname" : "Verdana",
					"numinlets" : 1,
					"fontsize" : 9.0
				}

			}
, 			{
				"box" : 				{
					"maxclass" : "newobj",
					"text" : "loadbang",
					"numoutlets" : 1,
					"patching_rect" : [ 50.0, 15.0, 62.0, 17.0 ],
					"outlettype" : [ "bang" ],
					"id" : "obj-53",
					"fontname" : "Arial",
					"numinlets" : 1,
					"fontsize" : 9.0
				}

			}
, 			{
				"box" : 				{
					"maxclass" : "newobj",
					"text" : "midiinfo",
					"numoutlets" : 1,
					"patching_rect" : [ 46.0, 71.0, 46.0, 17.0 ],
					"outlettype" : [ "" ],
					"id" : "obj-55",
					"fontname" : "Arial",
					"numinlets" : 2,
					"fontsize" : 9.0
				}

			}
, 			{
				"box" : 				{
					"maxclass" : "newobj",
					"text" : "udpreceive 3333",
					"numoutlets" : 1,
					"patching_rect" : [ 209.0, 8.0, 99.0, 20.0 ],
					"outlettype" : [ "" ],
					"id" : "obj-1",
					"fontname" : "Arial",
					"numinlets" : 1,
					"fontsize" : 12.0
				}

			}
 ],
		"lines" : [ 			{
				"patchline" : 				{
					"source" : [ "obj-12", 0 ],
					"destination" : [ "obj-10", 2 ],
					"hidden" : 0,
					"midpoints" : [ 506.5, 246.0, 454.5, 246.0 ]
				}

			}
, 			{
				"patchline" : 				{
					"source" : [ "obj-11", 0 ],
					"destination" : [ "obj-10", 1 ],
					"hidden" : 0,
					"midpoints" : [ 463.5, 246.0, 433.5, 246.0 ]
				}

			}
, 			{
				"patchline" : 				{
					"source" : [ "obj-3", 0 ],
					"destination" : [ "obj-10", 0 ],
					"hidden" : 0,
					"midpoints" : [ 419.5, 246.0, 412.5, 246.0 ]
				}

			}
, 			{
				"patchline" : 				{
					"source" : [ "obj-4", 0 ],
					"destination" : [ "obj-8", 2 ],
					"hidden" : 0,
					"midpoints" : [ 288.5, 258.0, 266.5, 258.0 ]
				}

			}
, 			{
				"patchline" : 				{
					"source" : [ "obj-2", 1 ],
					"destination" : [ "obj-8", 1 ],
					"hidden" : 0,
					"midpoints" : [ 322.5, 207.0, 258.0, 207.0, 258.0, 255.0, 245.5, 255.0 ]
				}

			}
, 			{
				"patchline" : 				{
					"source" : [ "obj-2", 0 ],
					"destination" : [ "obj-8", 0 ],
					"hidden" : 0,
					"midpoints" : [ 224.5, 246.0, 224.5, 246.0 ]
				}

			}
, 			{
				"patchline" : 				{
					"source" : [ "obj-52", 0 ],
					"destination" : [ "obj-8", 0 ],
					"hidden" : 0,
					"midpoints" : [  ]
				}

			}
, 			{
				"patchline" : 				{
					"source" : [ "obj-14", 0 ],
					"destination" : [ "obj-3", 0 ],
					"hidden" : 0,
					"midpoints" : [ 565.5, 195.0, 419.5, 195.0 ]
				}

			}
, 			{
				"patchline" : 				{
					"source" : [ "obj-7", 3 ],
					"destination" : [ "obj-3", 0 ],
					"hidden" : 0,
					"midpoints" : [ 476.5, 195.0, 419.5, 195.0 ]
				}

			}
, 			{
				"patchline" : 				{
					"source" : [ "obj-7", 2 ],
					"destination" : [ "obj-3", 0 ],
					"hidden" : 0,
					"midpoints" : [ 453.166656, 195.0, 419.5, 195.0 ]
				}

			}
, 			{
				"patchline" : 				{
					"source" : [ "obj-7", 1 ],
					"destination" : [ "obj-3", 0 ],
					"hidden" : 0,
					"midpoints" : [ 429.833344, 195.0, 419.5, 195.0 ]
				}

			}
, 			{
				"patchline" : 				{
					"source" : [ "obj-7", 0 ],
					"destination" : [ "obj-3", 0 ],
					"hidden" : 0,
					"midpoints" : [ 406.5, 195.0, 419.5, 195.0 ]
				}

			}
, 			{
				"patchline" : 				{
					"source" : [ "obj-5", 0 ],
					"destination" : [ "obj-2", 0 ],
					"hidden" : 0,
					"midpoints" : [  ]
				}

			}
, 			{
				"patchline" : 				{
					"source" : [ "obj-1", 0 ],
					"destination" : [ "obj-5", 0 ],
					"hidden" : 0,
					"midpoints" : [ 218.5, 105.0, 223.5, 105.0 ]
				}

			}
, 			{
				"patchline" : 				{
					"source" : [ "obj-55", 0 ],
					"destination" : [ "obj-52", 0 ],
					"hidden" : 0,
					"midpoints" : [  ]
				}

			}
, 			{
				"patchline" : 				{
					"source" : [ "obj-6", 0 ],
					"destination" : [ "obj-7", 0 ],
					"hidden" : 0,
					"midpoints" : [  ]
				}

			}
, 			{
				"patchline" : 				{
					"source" : [ "obj-1", 0 ],
					"destination" : [ "obj-6", 0 ],
					"hidden" : 0,
					"midpoints" : [ 218.5, 105.0, 403.5, 105.0 ]
				}

			}
, 			{
				"patchline" : 				{
					"source" : [ "obj-13", 0 ],
					"destination" : [ "obj-14", 0 ],
					"hidden" : 0,
					"midpoints" : [  ]
				}

			}
, 			{
				"patchline" : 				{
					"source" : [ "obj-1", 0 ],
					"destination" : [ "obj-13", 0 ],
					"hidden" : 0,
					"midpoints" : [ 218.5, 105.0, 565.5, 105.0 ]
				}

			}
, 			{
				"patchline" : 				{
					"source" : [ "obj-53", 0 ],
					"destination" : [ "obj-15", 0 ],
					"hidden" : 0,
					"midpoints" : [  ]
				}

			}
, 			{
				"patchline" : 				{
					"source" : [ "obj-15", 0 ],
					"destination" : [ "obj-55", 0 ],
					"hidden" : 0,
					"midpoints" : [  ]
				}

			}
 ]
	}

}
